<?xml version="1.0" encoding="UTF-8"?>
<svg id="Camada_2" data-name="Camada 2" xmlns="http://www.w3.org/2000/svg" viewBox="0 0 290 370">
  <defs>
    <style>
      .cls-1 {
        fill: #2cc069;
      }

      .cls-1, .cls-2 {
        stroke-width: 0px;
      }

      .cls-2 {
        fill: #fff;
      }
    </style>
  </defs>
  <g id="Camada_1-2" data-name="Camada 1">
    <g>
      <path class="cls-1" d="m290,145C290,64.92,225.08,0,145,0S0,64.92,0,145c0,124,145,225,145,225,0,0,145-99,145-225Z"/>
      <path class="cls-2" d="m150.63,88.76c-27.63,0-51.01,18.11-58.96,43.07,11.81-5.98,25.14-9.32,39.27-9.32h30.94c3.09,0,5.63,2.53,5.63,5.62s-2.53,5.62-5.63,5.62h-30.94c-5.84,0-11.5.67-16.98,1.9-9.11,2.07-17.54,5.77-25.1,10.79h0c-20.39,13.61-33.86,36.84-33.86,63.25v5.62c0,4.68,3.76,8.44,8.44,8.44s8.44-3.76,8.44-8.44v-5.62c0-17.12,7.28-32.52,18.91-43.31,6.96,26.54,31.11,46.13,59.84,46.13h.35c46.44-.25,84.02-46.02,84.02-102.45,0-14.98-2.64-29.21-7.42-42.05-.91-2.43-4.46-2.32-5.7-.04-6.61,12.37-19.69,20.78-34.7,20.78h-36.56Z"/>
    </g>
  </g>
</svg>